<svg width="512" height="512" viewBox="0 0 512 512" fill="none" xmlns="http://www.w3.org/2000/svg">
<path d="M121.583 54.7109L121.591 54.7271L159.906 108.417L182.143 159.629L61.0461 159.647L63.3219 155.707L104.476 84.3682L121.583 54.7109Z" fill="#BE383A"/>
<path d="M61.0513 159.581L182.157 159.563V159.579L123.92 260.543L123.904 260.567H123.888L123.896 260.583L121.628 264.515L65.6429 361.571L63.3833 365.495L61.114 361.571L8.75469 270.862C5.08378 264.503 5.08163 256.667 8.7491 250.305L61.0513 159.581Z" fill="#F6494B"/>
<path d="M123.155 466.624L151.633 466.62L108.227 487.015L121.633 469.259L123.155 466.624Z" fill="#320D66"/>
<path d="M182.334 361.669L218.57 424.592L240.653 462.836L242.866 466.679L123.308 466.697L115.016 410.008L182.334 361.669Z" fill="#274FC5"/>
<path d="M214.016 25C218.421 24.9993 222.492 27.3504 224.695 31.1674L238.242 54.6431L289.224 142.959L298.843 159.626H298.819L298.795 159.585L182.226 159.603L182.202 159.644H182.185L121.633 54.7418V54.7012L121.657 54.6607L121.633 54.6526L121.56 54.6121L111.598 37.3518C108.434 31.8694 112.388 25.0154 118.714 25.0144L214.016 25Z" fill="#721FE5"/>
<path d="M111.092 37.3867C107.892 31.9044 111.843 25.0154 118.188 25.0145L213.889 25C218.287 24.9993 222.353 27.3435 224.558 31.1516L257.901 88.7322L141.073 88.7498L111.092 37.3867Z" fill="#5818B1"/>
<path d="M417.62 155.711L419.888 159.634L463.214 234.697L478.164 260.596L478.146 260.62L357.099 260.639L393.311 197.862L415.359 159.635L417.62 155.711Z" fill="#C38435"/>
<path d="M238.19 54.6498L347.417 54.6333C354.758 54.6322 361.543 58.5501 365.212 64.9109L417.613 155.691L415.352 159.615L393.304 197.842L357.091 260.619H357.075L299.505 160.873L298.791 159.632L289.172 142.966L240.451 58.5652L238.19 54.6498Z" fill="#FDAB45"/>
<path d="M298.682 361.645L298.747 361.75L298.803 361.645L371.529 326.591L419.851 361.626L417.594 365.534L365.246 456.299C361.574 462.659 354.793 466.581 347.452 466.581L242.698 466.595L240.486 462.755L218.41 424.511L182.907 363L182.164 361.662L298.682 361.645Z" fill="#3366FF"/>
<path d="M123.874 260.655L182.158 361.625L123.16 466.579L121.638 469.213L113.814 482.775C110.694 488.185 102.925 488.278 99.6772 482.944L50.0613 401.475C47.715 397.622 47.6576 392.793 49.9119 388.885L63.3618 365.575L65.6215 361.643L121.606 264.587L123.874 260.655Z" fill="#721FE5"/>
<path d="M145.742 427.225L113.735 482.659C110.613 488.066 102.846 488.159 99.5993 482.828L49.9719 401.338C47.6295 397.491 47.5683 392.673 49.8118 388.769L86.5481 324.831L145.742 427.225Z" fill="#5818B1"/>
<path d="M109.739 33.6845C109.76 33.4834 110.028 33.4301 110.124 33.6079L121.503 54.6392L121.568 54.7446V54.7527L104.461 84.4102L109.739 33.6845Z" fill="#320D66"/>
<path d="M478.705 261.644L479.322 261.619L479.938 261.644L501.929 262.401C502.344 262.416 502.516 261.88 502.172 261.65L463.701 235.739L478.705 261.644Z" fill="#320D66"/>
<path d="M477.995 260.818L478.131 260.566L472.03 260.567L357.083 260.585L357.075 260.601L298.822 361.589L444.6 361.566C450.476 361.566 455.9 358.43 458.838 353.34L505.231 272.899C508.395 267.415 504.439 260.562 498.112 260.563L478.382 260.566L477.995 260.818Z" fill="#721FE5"/>
<path d="M432.546 260.573L374.287 361.577L447.016 361.566C451.42 361.565 455.49 359.213 457.693 355.396L505.272 272.898C508.435 267.415 504.48 260.562 498.153 260.563L432.546 260.573Z" fill="#5818B1"/>
</svg>
